<svg width="506" height="93" viewBox="0 0 506 93" fill="none" xmlns="http://www.w3.org/2000/svg">
<g clip-path="url(#clip0_811_2990)">
<path d="M14.4209 14.7006C14.5132 14.7933 14.5856 14.9037 14.6339 15.0252C14.6821 15.1466 14.7052 15.2766 14.7016 15.4072C14.698 15.5378 14.6679 15.6663 14.613 15.7849C14.5581 15.9035 14.4797 16.0098 14.3824 16.0973C13.227 17.1571 12.1325 18.2812 11.1042 19.4642C10.2072 20.5018 9.34835 21.5772 8.55617 22.7003C5.56473 26.8955 3.39527 31.6168 2.16205 36.6156C1.66776 38.6006 1.32562 40.6201 1.13854 42.6568C1.12743 42.7906 1.14428 42.9253 1.18807 43.0523C1.23186 43.1792 1.3016 43.2957 1.39289 43.3944C1.48418 43.493 1.59504 43.5717 1.71842 43.6255C1.8418 43.6792 1.975 43.7068 2.10962 43.7065H6.87719C7.11688 43.7053 7.3476 43.6153 7.52445 43.4539C7.7013 43.2926 7.81169 43.0714 7.83414 42.8334C8.0567 40.7269 8.47414 38.6455 9.08112 36.6156C10.0529 33.3846 11.4933 30.3127 13.3566 27.4973C14.1182 26.3466 14.95 25.2436 15.8473 24.1946C16.8793 22.967 17.9987 21.815 19.1966 20.7476C19.3828 20.5846 19.6243 20.4985 19.872 20.5069C20.1196 20.5152 20.3548 20.6175 20.5295 20.7927L37.8029 38.0203C37.9385 38.1555 38.1112 38.2476 38.2993 38.2849C38.4873 38.3222 38.6823 38.3031 38.8594 38.2299C39.0365 38.1567 39.1879 38.0328 39.2944 37.8738C39.401 37.7148 39.4579 37.5279 39.4579 37.3367V0.966926C39.4579 0.710489 39.3557 0.464543 39.1739 0.283215C38.9921 0.101887 38.7455 3.59597e-05 38.4884 3.05448e-05H2.02136C1.82959 -1.48565e-05 1.64211 0.0566469 1.48266 0.162883C1.3232 0.269119 1.19892 0.420113 1.12554 0.596807C1.05216 0.773501 1.03297 0.96793 1.07041 1.1555C1.10785 1.34307 1.20023 1.51539 1.33586 1.65059L14.4209 14.7006Z" fill="#FF6900"/>
<path d="M33.0699 49.4214H0.971446C0.77968 49.4214 0.592239 49.4781 0.432797 49.5844C0.273354 49.6907 0.149103 49.8417 0.0757301 50.0184C0.00235669 50.1951 -0.0168284 50.3895 0.0206007 50.5771C0.0580297 50.7646 0.150387 50.9369 0.286002 51.0721L16.3352 67.0784C16.4252 67.1682 16.5321 67.2394 16.6497 67.288C16.7673 67.3366 16.8933 67.3616 17.0207 67.3616C17.148 67.3616 17.274 67.3366 17.3916 67.288C17.5092 67.2394 17.6161 67.1682 17.7061 67.0784L33.7553 51.0721C33.8909 50.9369 33.9833 50.7646 34.0207 50.5771C34.0581 50.3895 34.0389 50.1951 33.9656 50.0184C33.8922 49.8417 33.7679 49.6907 33.6085 49.5844C33.4491 49.4781 33.2616 49.4214 33.0699 49.4214Z" fill="#FF6900"/>
<path d="M37.8041 55.1094L21.7545 71.1161C21.5728 71.2974 21.4707 71.5434 21.4707 71.7997C21.4707 72.0561 21.5728 72.302 21.7545 72.4834L37.8041 88.4901C37.9397 88.6253 38.1124 88.7174 38.3005 88.7548C38.4886 88.7921 38.6835 88.773 38.8607 88.6998C39.0379 88.6266 39.1893 88.5027 39.2958 88.3437C39.4023 88.1847 39.4592 87.9977 39.4591 87.8065V55.793C39.4591 55.6018 39.4023 55.4148 39.2958 55.2558C39.1893 55.0968 39.0378 54.9729 38.8607 54.8997C38.6835 54.8265 38.4886 54.8074 38.3005 54.8447C38.1125 54.882 37.9397 54.9742 37.8041 55.1094Z" fill="#FF6900"/>
<path d="M73.4706 73.6023C74.4007 72.5488 75.2736 71.4464 76.0856 70.2998C79.077 66.1045 81.2464 61.3832 82.4797 56.3844C82.9649 54.4403 83.3032 52.4626 83.4918 50.468C83.5031 50.3341 83.4865 50.1993 83.4428 50.0722C83.3991 49.9451 83.3294 49.8284 83.2381 49.7296C83.1468 49.6308 83.0359 49.552 82.9125 49.4982C82.789 49.4444 82.6556 49.4168 82.5209 49.4172H77.751C77.5121 49.4183 77.2819 49.5077 77.1052 49.668C76.9284 49.8284 76.8175 50.0484 76.7939 50.2856C76.5692 52.3524 76.1531 54.3941 75.5511 56.3844C74.5847 59.6159 73.1474 62.6881 71.2851 65.5027C70.5067 66.6774 69.6557 67.8027 68.7371 68.8721C67.6995 70.1002 66.5737 71.2514 65.3687 72.3166C65.1822 72.478 64.9412 72.5627 64.6944 72.5536C64.4476 72.5445 64.2135 72.4423 64.0395 72.2675L46.8386 55.1129C46.703 54.9777 46.5303 54.8856 46.3422 54.8483C46.1542 54.8109 45.9592 54.8301 45.7821 54.9033C45.6049 54.9765 45.4535 55.1004 45.347 55.2594C45.2405 55.4184 45.1836 55.6053 45.1836 55.7965V92.0331C45.1836 92.2895 45.2858 92.5355 45.4676 92.7168C45.6494 92.8981 45.896 93 46.1531 93H82.4869C82.6786 93 82.8661 92.9433 83.0255 92.8371C83.185 92.7309 83.3092 92.5798 83.3826 92.4031C83.456 92.2264 83.4752 92.032 83.4378 91.8445C83.4003 91.6569 83.308 91.4846 83.1724 91.3494L70.1472 78.3589C70.0547 78.2661 69.982 78.1554 69.9338 78.0337C69.8855 77.912 69.8626 77.7817 69.8664 77.6509C69.8702 77.52 69.9007 77.3913 69.9559 77.2726C70.0112 77.1538 70.0902 77.0476 70.188 76.9603C71.3465 75.9053 72.4426 74.7841 73.4706 73.6023Z" fill="#FF6900"/>
<path d="M46.8405 38.0219L62.9559 21.9494C63.046 21.8597 63.1174 21.7531 63.1662 21.6358C63.2149 21.5185 63.2401 21.3927 63.2401 21.2657C63.2401 21.1387 63.2149 21.0129 63.1662 20.8956C63.1174 20.7783 63.046 20.6717 62.9559 20.5819L46.8405 4.50942C46.7049 4.37421 46.5322 4.28216 46.3441 4.24488C46.156 4.20759 45.9611 4.22676 45.784 4.29996C45.6068 4.37316 45.4554 4.49711 45.3489 4.65612C45.2424 4.81513 45.1855 5.00209 45.1855 5.19333V37.3383C45.1856 37.5295 45.2424 37.7164 45.3489 37.8754C45.4555 38.0344 45.6069 38.1584 45.784 38.2316C45.9612 38.3047 46.1561 38.3239 46.3442 38.2865C46.5322 38.2492 46.705 38.1572 46.8405 38.0219Z" fill="#FF6900"/>
<path d="M84.4916 42.0601L68.3755 25.9871C68.2855 25.8973 68.1786 25.8261 68.061 25.7775C67.9434 25.7288 67.8173 25.7038 67.69 25.7038C67.5626 25.7038 67.4366 25.7288 67.3189 25.7775C67.2013 25.8261 67.0944 25.8973 67.0044 25.9871L50.8885 42.0601C50.7529 42.1953 50.6606 42.3676 50.6231 42.5551C50.5857 42.7427 50.6049 42.9371 50.6783 43.1138C50.7517 43.2905 50.8759 43.4415 51.0354 43.5477C51.1948 43.654 51.3823 43.7107 51.574 43.7106H83.8061C83.9979 43.7107 84.1854 43.654 84.3448 43.5478C84.5043 43.4416 84.6286 43.2905 84.702 43.1138C84.7753 42.9371 84.7945 42.7427 84.7571 42.5551C84.7196 42.3676 84.6273 42.1953 84.4916 42.0601Z" fill="#FF6900"/>
<path d="M19.1859 29.0595C16.1685 33.0198 14.2378 37.6958 13.5839 42.6268C13.5677 42.7627 13.5806 42.9005 13.6218 43.031C13.663 43.1615 13.7316 43.2818 13.8229 43.3839C13.9143 43.4859 14.0263 43.5675 14.1516 43.6231C14.277 43.6787 14.4127 43.7071 14.5499 43.7064H33.0708C33.2625 43.7064 33.4499 43.6497 33.6094 43.5435C33.7688 43.4372 33.8931 43.2862 33.9664 43.1096C34.0398 42.9329 34.059 42.7385 34.0216 42.551C33.9842 42.3634 33.8918 42.1911 33.7562 42.0559L20.6398 28.9745C20.5428 28.8769 20.4261 28.8009 20.2974 28.7518C20.1688 28.7026 20.0311 28.6813 19.8935 28.6894C19.756 28.6974 19.6218 28.7346 19.4997 28.7984C19.3777 28.8623 19.2707 28.9513 19.1859 29.0595Z" fill="#FF6900"/>
<path d="M65.4086 64.0204C68.4315 60.0773 70.376 55.4189 71.052 50.5013C71.0689 50.3651 71.0565 50.2269 71.0157 50.0958C70.9748 49.9648 70.9064 49.844 70.8151 49.7414C70.7237 49.6388 70.6114 49.5569 70.4858 49.501C70.3601 49.4451 70.224 49.4165 70.0864 49.4172H51.571C51.3793 49.4172 51.1918 49.4739 51.0324 49.5802C50.873 49.6864 50.7487 49.8374 50.6753 50.0141C50.602 50.1908 50.5828 50.3852 50.6202 50.5727C50.6576 50.7603 50.75 50.9326 50.8856 51.0678L63.9561 64.1036C64.0529 64.2011 64.1694 64.277 64.2979 64.3262C64.4263 64.3753 64.5638 64.3967 64.7012 64.3888C64.8386 64.3809 64.9727 64.344 65.0946 64.2805C65.2166 64.217 65.3236 64.1284 65.4086 64.0204Z" fill="#FF6900"/>
<path d="M204.696 30.1353C204.26 29.6914 203.738 29.3394 203.162 29.1001C202.587 28.8608 201.969 28.739 201.345 28.7419H161.643C160.386 28.7434 159.182 29.2419 158.293 30.1281C157.405 31.0143 156.905 32.2158 156.903 33.469V59.3717C156.905 60.6252 157.404 61.827 158.293 62.7134C159.181 63.5999 160.386 64.0985 161.643 64.1H201.345C202.602 64.0983 203.806 63.5995 204.695 62.7131C205.583 61.8267 206.083 60.6251 206.084 59.3717V33.469C206.088 32.8491 205.967 32.2347 205.728 31.6621C205.49 31.0896 205.139 30.5704 204.696 30.1353ZM168.287 56.3115V36.5354H194.701V56.3115H168.287Z" fill="#FF6900"/>
<path d="M457.952 39.8329V33.469C457.953 32.8482 457.83 32.2334 457.59 31.6608C457.349 31.0882 456.996 30.5694 456.551 30.1352C456.114 29.6914 455.593 29.3394 455.017 29.1001C454.441 28.8608 453.824 28.739 453.2 28.7419H413.985C412.728 28.7435 411.523 29.2421 410.635 30.1282C409.746 31.0144 409.247 32.2158 409.245 33.469V59.3717C409.246 60.6251 409.746 61.8268 410.635 62.7133C411.523 63.5997 412.728 64.0984 413.985 64.1001H453.2C454.458 64.1001 455.665 63.6023 456.556 62.7158C457.447 61.8294 457.949 60.6267 457.952 59.3717V53.0216H446.569V56.3114H420.629V36.5354H446.569V39.8329H457.952Z" fill="#FF6900"/>
<path d="M147.456 41.9492H118.176V36.5355H147.665C148.893 36.5051 150.059 35.9905 150.907 35.1045C151.756 34.2185 152.218 33.0332 152.191 31.8084V28.7431L111.531 28.7419C110.274 28.7435 109.07 29.2423 108.181 30.1287C107.293 31.0151 106.793 32.2168 106.792 33.4702V45.1942C106.794 46.4472 107.293 47.6485 108.182 48.5345C109.07 49.4205 110.275 49.9187 111.531 49.9201H140.812V56.3115H106.792V59.3779C106.766 60.6028 107.228 61.788 108.076 62.674C108.924 63.56 110.09 64.0746 111.318 64.105H143.439L144.145 64.0975L147.456 64.0988C148.712 64.0975 149.917 63.5992 150.805 62.7132C151.694 61.8272 152.194 60.626 152.195 59.373V47.1046C152.195 44.359 149.981 41.9492 147.456 41.9492Z" fill="#FF6900"/>
<path d="M383.572 29.0877L383.344 28.7469H372.609L350.402 64.1063H362.047L377.984 38.7317L382.053 45.208H378.974C377.089 45.2104 375.281 45.9585 373.948 47.2882C372.615 48.618 371.865 50.4207 371.863 52.3011V53.1801H387.058L393.92 64.1063H405.566L383.572 29.0877Z" fill="#FF6900"/>
<path d="M506 36.537V28.7379H461.542V64.115H470.298L471.028 64.1022H506V56.3031H472.938V49.9294L502.975 49.9288V42.1227L479.723 42.1233C478.131 42.1256 476.589 42.6731 475.354 43.6742C474.119 44.6752 473.266 46.0691 472.938 47.6224V36.537L506 36.537Z" fill="#FF6900"/>
<path d="M228.727 56.4563C227.29 56.459 225.889 56.9067 224.718 57.7376C223.547 58.5685 222.663 59.7416 222.19 61.0948L222.189 28.7379H210.793L210.793 64.2599H221.796V64.2624H252.406V56.4563H228.727Z" fill="#FF6900"/>
<path d="M324.096 56.3115C322.659 56.3141 321.258 56.7619 320.087 57.5928C318.916 58.4237 318.032 59.5967 317.558 60.9499V28.7379H306.162V64.115H317.165V64.1175H347.774V56.3115H324.096Z" fill="#FF6900"/>
<path d="M255.995 28.7378V64.115H267.392V49.9231H301.453V28.7378L255.995 28.7378ZM274.309 41.9452C272.513 42.0151 270.807 42.7524 269.527 44.0122C268.247 45.2721 267.486 46.9635 267.392 48.7545V36.537H290.057V41.9452H274.309Z" fill="#FF6900"/>
</g>
<defs>
<clipPath id="clip0_811_2990">
<rect width="506" height="93" fill="white"/>
</clipPath>
</defs>
</svg>
